<?xml version="1.0"?>
<svg xmlns="http://www.w3.org/2000/svg" id="Layer_1" data-name="Layer 1" viewBox="0 0 512 512" width="512px" height="512px" class=""><g><path d="M498.76,371.48v32.05a41.679,41.679,0,0,1-41.68,41.68H54.92a41.679,41.679,0,0,1-41.68-41.68V371.48H194.86l8.46,9.18a41.671,41.671,0,0,0,30.64,13.43h44.08a41.671,41.671,0,0,0,30.64-13.43l8.46-9.18H498.76Z" style="fill:#FFB229" data-original="#F4B844" class="" data-old_color="#F4B844"/><path d="M476.74,371.42v.06H317.14l-8.46,9.18a41.671,41.671,0,0,1-30.64,13.43H233.96a41.671,41.671,0,0,1-30.64-13.43l-8.46-9.18H35.26V108.47A41.679,41.679,0,0,1,76.94,66.79H435.06a41.679,41.679,0,0,1,41.68,41.68ZM445.61,343.1V100.87H66.39V343.1Z" style="fill:#EB7D16" data-original="#00ACEA" class="" data-old_color="#00ACEA"/><path d="M445.61,100.87V343.1H66.39V100.87ZM347.85,304.74a51.569,51.569,0,0,0-29.91-91.48v-.06l-15.56-20.85a20.822,20.822,0,0,0-15.88-7.22H225.44a20.8,20.8,0,0,0-15.87,7.22L194,213.2v.06a51.556,51.556,0,1,0,42.65,84.08h38.64A51.568,51.568,0,0,0,347.85,304.74Z" style="fill:#1273EB" data-original="#00EFD1" class="" data-old_color="#00EFD1"/><path d="M355.25,232.18a51.574,51.574,0,0,1-79.96,65.16H236.65A51.556,51.556,0,1,1,194,213.26c.88-.05,1.77-.07,2.66-.07H315.29c.89,0,1.77.02,2.65.07A51.551,51.551,0,0,1,355.25,232.18Z" style="fill:#FFB229" data-original="#FEDB41" class="active-path" data-old_color="#FEDB41"/><path d="M317.94,213.2v.06c-.88-.05-1.76-.07-2.65-.07H196.66c-.89,0-1.78.02-2.66.07v-.06l15.57-20.85a20.8,20.8,0,0,1,15.87-7.22H286.5a20.822,20.822,0,0,1,15.88,7.22Z" style="fill:#FFB229" data-original="#F4B844" class="" data-old_color="#F4B844"/><path d="M453,101a8,8,0,0,0-8-8H66a8,8,0,0,0-8,8V343a8,8,0,0,0,8,8H445a8,8,0,0,0,8-8ZM438,335H74V109H438Z" style="fill:#083863" data-original="#083863" class=""/><path d="M498.76,363H485V108.47C485,81.077,462.454,59,435.06,59H76.94C49.546,59,27,81.077,27,108.47V363H13.24A8.631,8.631,0,0,0,5,371.48v32.05C5,430.923,27.526,453,54.92,453H457.08c27.394,0,49.92-22.077,49.92-49.47V371.48A8.631,8.631,0,0,0,498.76,363ZM43,108.47C43,89.9,58.369,75,76.94,75H435.06C453.631,75,469,89.9,469,108.47V363H317.14a8.241,8.241,0,0,0-5.883,2.819l-8.46,9.254A33.831,33.831,0,0,1,278.04,386H233.96A33.718,33.718,0,0,1,209.2,375.194l-8.46-9.4a8.22,8.22,0,0,0-5.883-2.8H43ZM491,403.53C491,422.1,475.651,437,457.08,437H54.92C36.349,437,21,422.1,21,403.53V379H191.354l6.084,6.8A49.993,49.993,0,0,0,233.96,402h44.08a49.993,49.993,0,0,0,36.522-16.2l6.084-6.8H491Z" style="fill:#083863" data-original="#083863" class=""/><path d="M196.705,324h.066a59.577,59.577,0,0,0,43.513-19H271.65a57.526,57.526,0,0,0,37.574,18.859,60.949,60.949,0,0,0,6.159.4,59.527,59.527,0,0,0,6.88-118.647l-13.472-18.048c-.111-.15-.228-.359-.35-.5A28.815,28.815,0,0,0,286.642,177H264V163.58A35.709,35.709,0,0,0,228.04,128h-22a8,8,0,1,0,0,16h22A19.692,19.692,0,0,1,248,163.58V177H225.337a28.828,28.828,0,0,0-21.828,10.064c-.121.141-.238.318-.349.467L189.679,205.6a59.5,59.5,0,0,0-52.529,59.2A59.31,59.31,0,0,0,196.705,324Zm28.671-131H286.6a12.77,12.77,0,0,1,9.553,4.227L301.98,205H209.967l5.827-7.773A12.78,12.78,0,0,1,225.376,193Zm-30.924,28.152c.678-.038,1.4-.152,2.208-.152H315.29c.8,0,1.52.114,2.2.152.015,0,.03.049.044.05a43.6,43.6,0,1,1-36.041,70.913,8.165,8.165,0,0,0-6.2-3.115H236.65a8.021,8.021,0,0,0-6.2,2.961A43.388,43.388,0,0,1,196.751,308H196.7a43.451,43.451,0,0,1-2.252-86.848Z" style="fill:#083863" data-original="#083863" class=""/><path d="M177.9,272H186v8.26a8,8,0,0,0,16,0V272h7.86a8,8,0,0,0,0-16H202v-7.7a8,8,0,0,0-16,0V256h-8.1a8,8,0,1,0,0,16Z" style="fill:#083863" data-original="#083863" class=""/><path d="M308.35,248.01a8,8,0,0,0,6.7-3.635,8,8,0,0,0,14.7-4.365,14.705,14.705,0,1,0-29.41,0A8,8,0,0,0,308.35,248.01Z" style="fill:#083863" data-original="#083863" class=""/><path d="M315.06,300.95a14.721,14.721,0,0,0,14.7-14.71,8,8,0,0,0-14.7-4.365,8,8,0,0,0-14.7,4.365A14.726,14.726,0,0,0,315.06,300.95Z" style="fill:#083863" data-original="#083863" class=""/><path d="M330.18,269.83a8,8,0,0,0,8,8,14.705,14.705,0,0,0,0-29.41,8,8,0,0,0-4.366,14.705A7.993,7.993,0,0,0,330.18,269.83Z" style="fill:#083863" data-original="#083863" class=""/><path d="M291.94,277.83a8,8,0,0,0,4.366-14.7,8,8,0,0,0-4.366-14.705,14.705,14.705,0,1,0,0,29.41Z" style="fill:#083863" data-original="#083863" class=""/></g> </svg>
